<?xml version="1.0" encoding="UTF-8" standalone="no"?>
<svg
   width="325.09311"
   height="268.10092"
   viewBox="0 0 325.09311 268.10092"
   version="1.1"
   xml:space="preserve"
   style="clip-rule:evenodd;fill-rule:evenodd;stroke-linejoin:round;stroke-miterlimit:2"
   id="svg1"
   sodipodi:docname="mermaid_logo.svg"
   inkscape:version="1.4 (e7c3feb100, 2024-10-09)"
   xmlns:inkscape="http://www.inkscape.org/namespaces/inkscape"
   xmlns:sodipodi="http://sodipodi.sourceforge.net/DTD/sodipodi-0.dtd"
   xmlns="http://www.w3.org/2000/svg"
   xmlns:svg="http://www.w3.org/2000/svg"><defs
   id="defs1" /><sodipodi:namedview
   id="namedview1"
   pagecolor="#ffffff"
   bordercolor="#000000"
   borderopacity="0.25"
   inkscape:showpageshadow="2"
   inkscape:pageopacity="0.0"
   inkscape:pagecheckerboard="0"
   inkscape:deskcolor="#d1d1d1"
   inkscape:zoom="2.3625255"
   inkscape:cx="162.74957"
   inkscape:cy="168.46379"
   inkscape:window-width="2560"
   inkscape:window-height="1371"
   inkscape:window-x="20"
   inkscape:window-y="20"
   inkscape:window-maximized="0"
   inkscape:current-layer="svg1" />
    <!-- <path d="M490.16,84.61C490.16,37.912 452.248,0 405.55,0L84.61,0C37.912,0 0,37.912 0,84.61L0,405.55C0,452.248 37.912,490.16 84.61,490.16L405.55,490.16C452.248,490.16 490.16,452.248 490.16,405.55L490.16,84.61Z" style="fill:rgb(255,54,112);"/> -->
    <path
   d="M 324.94556,0.15091923 C 253.05256,-2.9260808 187.03856,41.308919 162.54556,108.97092 138.05256,41.308919 72.038563,-2.9260808 0.14556334,0.15091923 -2.2494367,57.199919 25.042563,111.60292 72.205563,143.79092 c 24.168,16.599 38.609997,44.131 38.529997,73.45 v 50.86 h 103.63 v -50.86 c -0.084,-29.317 14.355,-56.85 38.52,-73.45 47.176,-32.176 74.472,-86.587001 72.06,-143.64000077 z"
   style="fill:#ffffff;fill-rule:nonzero"
   id="path1" />
</svg>
