<?xml version="1.0" encoding="UTF-8" standalone="no"?>
<svg
   width="800"
   height="232.99883"
   viewBox="0 0 800 232.99883"
   fill="none"
   version="1.1"
   id="svg12"
   sodipodi:docname="reveal_js_logo.svg"
   inkscape:version="1.4 (e7c3feb100, 2024-10-09)"
   xmlns:inkscape="http://www.inkscape.org/namespaces/inkscape"
   xmlns:sodipodi="http://sodipodi.sourceforge.net/DTD/sodipodi-0.dtd"
   xmlns="http://www.w3.org/2000/svg"
   xmlns:svg="http://www.w3.org/2000/svg">
  <defs
     id="defs12" />
  <sodipodi:namedview
     id="namedview12"
     pagecolor="#ffffff"
     bordercolor="#000000"
     borderopacity="0.25"
     inkscape:showpageshadow="2"
     inkscape:pageopacity="0.0"
     inkscape:pagecheckerboard="0"
     inkscape:deskcolor="#d1d1d1"
     inkscape:zoom="1"
     inkscape:cx="94.5"
     inkscape:cy="32"
     inkscape:window-width="2560"
     inkscape:window-height="1371"
     inkscape:window-x="20"
     inkscape:window-y="20"
     inkscape:window-maximized="0"
     inkscape:current-layer="svg12" />
  <path
     fill-rule="evenodd"
     clip-rule="evenodd"
     d="M 249.54269,178.18505 V 57.871214 L 50.754444,13.876205 V 219.34182 Z m 5.94461,11.72724 c 3.92755,-0.81335 6.744,-4.27268 6.744,-8.28355 V 54.475319 c 0,-3.967307 -2.75724,-7.40169 -6.63108,-8.259017 L 48.352913,0.34904074 C 43.071912,-0.81970721 38.065832,3.1995836 38.065832,8.6082732 L 38.06579,224.53654 c 0,5.36136 4.924069,9.37055 10.174194,8.28356 z"
     fill="#d53f8c"
     id="path1"
     style="stroke-width:4.22954" />
  <path
     d="M 0,51.369991 C 0,47.359122 2.8165884,43.899784 6.7440813,43.086445 L 213.99131,0.17871729 c 5.25013,-1.08695718 10.17414,2.92197981 10.17414,8.28342561 V 224.39062 c 0,5.40874 -5.00608,9.42765 -10.28706,8.25903 L 6.6311949,186.78285 C 2.757417,185.92551 0,182.49071 0,178.52341 Z"
     fill="#f2e142"
     id="path2"
     style="stroke-width:4.22954" />
  <path
     d="M 50.754444,10.884948 V 222.34439 H 38.065875 V 10.884948 Z"
     fill="#d53f8c"
     id="path3"
     style="stroke-width:4.22954" />
  <path
     d="m 326.92376,158.38277 h 12.62432 v -51.99623 c 0,-11.126643 8.7729,-19.257928 20.7556,-19.257928 3.3701,0 6.8472,0.642044 7.70283,0.856058 V 75.145911 c -1.44438,-0.107012 -4.76076,-0.214014 -6.63318,-0.214014 -9.84257,0 -18.40144,5.563533 -21.39723,13.694394 h -0.85605 V 76.215984 h -12.19629 z"
     fill="#ffffff"
     id="path4"
     style="stroke-width:4.22954" />
  <path
     d="m 407.67787,160.0949 c 16.68849,0 28.88648,-8.3453 32.73958,-20.75604 l -12.19798,-3.42339 c -3.21022,8.5589 -10.64532,12.83834 -20.5416,12.83834 -14.81776,0 -25.03462,-9.57525 -25.62337,-27.17477 h 59.64451 v -5.34952 c 0,-30.598586 -18.18701,-41.083609 -35.3048,-41.083609 -22.25329,0 -37.01734,17.546234 -37.01734,42.795299 0,25.2495 14.55004,42.15369 38.301,42.15369 z M 382.0545,110.66598 c 0.85606,-12.785038 9.89626,-24.17941 24.33971,-24.17941 13.69398,0 22.46815,10.271006 22.46815,24.17941 z"
     fill="#ffffff"
     id="path5"
     style="stroke-width:4.22954" />
  <path
     d="M 520.85056,76.215984 H 507.15531 L 484.47232,141.6926 h -0.85437 l -22.683,-65.476616 h -13.69102 l 30.38076,82.166786 h 12.84087 z"
     fill="#ffffff"
     id="path6"
     style="stroke-width:4.22954" />
  <path
     d="m 561.77555,160.0949 c 16.68976,0 28.88775,-8.3453 32.74085,-20.75604 l -12.19799,-3.42339 c -3.2102,8.5589 -10.64574,12.83834 -20.54286,12.83834 -14.81606,0 -25.03462,-9.57525 -25.62253,-27.17477 h 59.64493 v -5.34952 c 0,-30.598586 -18.187,-41.083609 -35.30394,-41.083609 -22.25582,0 -37.01691,17.546234 -37.01691,42.795299 0,25.2495 14.5496,42.15369 38.29845,42.15369 z m -25.62253,-49.42892 c 0.85859,-12.785038 9.89713,-24.17941 24.34099,-24.17941 13.69524,0 22.4673,10.271006 22.4673,24.17941 z"
     fill="#ffffff"
     id="path7"
     style="stroke-width:4.22954" />
  <path
     d="m 631.93935,160.3085 c 14.33812,0 21.82441,-7.70285 24.39174,-13.05236 h 0.6429 v 11.12663 h 12.62516 v -54.13595 c 0,-26.105128 -19.89999,-29.100909 -30.38499,-29.100909 -12.40947,0 -26.53188,4.279445 -32.95233,19.257929 l 11.98228,4.279445 c 2.78303,-5.99114 9.36419,-12.41073 21.39722,-12.41073 11.61008,0 17.33266,6.151861 17.33266,16.690175 v 0.42803 c 0,6.09857 -6.20474,5.56353 -21.18153,7.48924 -15.24748,1.97942 -31.88225,5.34952 -31.88225,24.17942 0,16.04813 12.40945,25.24908 28.02914,25.24908 z m 1.92444,-11.34066 c -10.05361,0 -17.32841,-4.49347 -17.32841,-13.26638 0,-9.62896 8.77206,-12.62474 18.61418,-13.90841 5.35038,-0.64204 19.68428,-2.14015 21.82443,-4.7079 v 11.5551 c 0,10.27059 -8.12919,20.32759 -23.1102,20.32759 z"
     fill="#ffffff"
     id="path8"
     style="stroke-width:4.22954" />
  <path
     d="M 698.02164,48.826771 H 685.40069 V 158.38277 h 12.62095 z"
     fill="#ffffff"
     id="path9"
     style="stroke-width:4.22954" />
  <path
     d="M 741.94115,99.581216 V 135.8846 c 0,3.4365 -1.37036,5.37532 -4.44525,5.37532 h -0.93895 v 4.8462 h 1.02355 c 6.32315,0 9.40225,-3.96518 9.40225,-10.22152 V 99.581216 Z m 2.47427,-5.639242 c 1.96674,0 3.59088,-1.586077 3.59088,-3.524895 0,-1.938398 -1.62414,-3.524474 -3.59088,-3.524474 -1.96251,0 -3.58663,1.586076 -3.58663,3.524474 0,1.938818 1.62412,3.524895 3.58663,3.524895 z"
     fill="#ffffff"
     id="path10"
     style="stroke-width:4.22954" />
  <path
     d="m 778.25172,107.15928 c -1.57762,-4.80264 -5.1262,-8.018783 -11.61853,-8.018783 -6.92377,0 -12.04995,4.053593 -12.04995,9.780803 0,4.67026 2.6942,7.79842 8.71706,9.25211 l 5.4688,1.32173 c 3.31174,0.79304 4.8682,2.42311 4.8682,4.75823 0,2.90782 -2.99029,5.28693 -7.6893,5.28693 -4.12381,0 -6.70805,-1.82843 -7.6047,-5.46288 l -4.78363,1.23334 c 1.17582,5.74964 5.76488,8.81181 12.47292,8.81181 7.62586,0 12.81974,-4.29593 12.81974,-10.13354 0,-4.71425 -2.86342,-7.68803 -8.71709,-9.16372 l -4.8682,-1.23375 c -3.89116,-0.99141 -5.64219,-2.33513 -5.64219,-4.93461 0,-2.9078 2.99028,-5.02257 7.00834,-5.02257 4.39871,0 6.21317,2.5115 7.09292,4.84663 z"
     fill="#ffffff"
     id="path11"
     style="stroke-width:4.22954" />
  <path
     fill-rule="evenodd"
     clip-rule="evenodd"
     d="m 791.54093,78.433531 h -67.67259 c -2.3347,0 -4.22954,1.893563 -4.22954,4.229536 v 67.672593 c 0,2.33598 1.89484,4.22954 4.22954,4.22954 h 67.67259 c 2.33471,0 4.22953,-1.89356 4.22953,-4.22954 V 82.663067 c 0,-2.335973 -1.89482,-4.229536 -4.22953,-4.229536 z m -67.67259,-4.229537 c -4.67364,0 -8.45908,3.787127 -8.45908,8.459073 v 67.672593 c 0,4.67195 3.78544,8.45908 8.45908,8.45908 h 67.67259 c 4.66941,0 8.45907,-3.78713 8.45907,-8.45908 V 82.663067 c 0,-4.671946 -3.78966,-8.459073 -8.45907,-8.459073 z"
     fill="#ffffff"
     id="path12"
     style="stroke-width:4.22954" />
</svg>
